<svg xmlns="http://www.w3.org/2000/svg" width="50.83" height="21.512" viewBox="0 0 50.83 21.512"><path fill="#999" d="M41.35 21.512c-8.816 0-11.724-4.56-13.647-7.58-.96-1.507-1.542-2.36-2.287-2.36-.746 0-1.326.853-2.288 2.36-1.924 3.02-4.83 7.58-13.646 7.58-8.783 0-9.34-4.303-9.36-4.486-.006-.08-.085-9.193-.085-10.472 0-.128-.006-.29-.014-.48-.05-1.305-.14-3.735 1.185-5.11C1.824.323 2.645 0 3.648 0 5.2 0 8.477.622 12.27 1.342c4.736.9 10.104 1.918 13.146 1.918 3.04 0 8.41-1.02 13.145-1.918C42.355.622 45.63 0 47.18 0c1.006 0 1.827.324 2.442.963 1.325 1.375 1.233 3.807 1.185 5.112-.007.188-.014.35-.014.48 0 1.278-.08 10.393-.08 10.393-.023.262-.582 4.564-9.364 4.564zM25.415 9.94c1.678 0 2.6 1.443 3.663 3.115 1.835 2.88 4.35 6.824 12.27 6.824 6.804 0 7.658-2.705 7.732-3.016.008-.84.08-9.1.08-10.31 0-.146.006-.33.014-.54.04-1.064.114-3.044-.73-3.92-.3-.31-.713-.462-1.265-.462-1.396 0-4.757.638-8.315 1.313-4.806.913-10.254 1.947-13.45 1.947s-8.643-1.034-13.45-1.947C8.41 2.27 5.046 1.633 3.65 1.633c-.553 0-.966.15-1.266.462-.844.876-.77 2.856-.73 3.92.01.21.015.394.015.54 0 1.21.072 9.47.08 10.31.074.31.928 3.015 7.73 3.015 7.92 0 10.436-3.944 12.272-6.823 1.066-1.673 1.987-3.117 3.664-3.118z"/></svg>