<svg xmlns="http://www.w3.org/2000/svg" width="52.941" height="17.741" viewBox="0 0 52.941 17.741"><path fill="#999" d="M11.682 17.74c-1.403 0-2.882-.172-4.396-.514C2.24 16.092 2.66 3.38 2.726 1.933l.025-.57.555-.136C6.612.413 9.767 0 12.683 0c6.47 0 10.488 1.996 11.965 3.705.482.56.69 1.09.618 1.578-1.466 8.042-6.29 12.458-13.584 12.458zM4.23 2.575c-.144 4.995.626 12.544 3.39 13.166 1.405.315 2.772.477 4.062.477 6.475 0 10.764-3.972 12.08-11.18-.114-.556-3.342-3.512-11.08-3.512-2.63 0-5.47.353-8.453 1.05z"/><path fill="#999" d="M26.638 3.6c-4.132 0-7.168-1.13-7.357-1.203l.544-1.425C19.89.996 26.42 3.415 33.132.97l.522 1.432c-2.47.898-4.89 1.2-7.016 1.2zM2.81 6.877c-.01-.253-.93-.36-1.372-.412-.2-.023-.392-.045-.562-.073L.32 6.298l-.122-.926c-.13-.96-.293-2.16-.128-2.93l.103-.475.472-.108c.668-.154 1.195-.3 1.71-.444C3.818 1.01 5.196.628 9.164.196l.165 1.517c-3.844.417-5.165.784-6.564 1.172-.39.108-.787.218-1.24.33-.002.51.082 1.194.156 1.744.94.11 2.587.336 2.654 1.85l-1.524.067z"/><path fill="#999" d="M41.307 17.74c-7.295 0-12.117-4.415-13.58-12.43-.075-.517.133-1.048.615-1.606C29.82 1.996 33.84 0 40.307 0c2.916 0 6.07.413 9.378 1.228l.554.136.024.57c.064 1.446.485 14.16-4.56 15.293-1.514.34-2.993.514-4.397.514zm-1-16.215c-7.738 0-10.966 2.956-11.073 3.59 1.31 7.13 5.6 11.102 12.073 11.102 1.29 0 2.657-.16 4.06-.477 2.77-.623 3.54-8.17 3.396-13.166-2.984-.696-5.826-1.05-8.456-1.05z"/><path fill="#999" d="M50.168 6.877l-1.522-.066c.066-1.515 1.722-1.74 2.665-1.85.074-.55.16-1.238.157-1.746-.4-.1-.792-.2-1.18-.3-1.938-.497-3.77-.966-6.605-1.2l.125-1.52c2.965.245 4.856.73 6.86 1.244.546.14 1.1.283 1.683.42l.47.112.1.47c.167.77.005 1.968-.125 2.93l-.12.928-.56.093c-.17.03-.362.052-.563.075-.447.053-1.374.16-1.384.412zM28.844 9.283c-.78-1.164-1.56-1.753-2.32-1.753h-.03c-1.077.024-2.06 1.252-2.346 1.723l-1.305-.788c.06-.1 1.472-2.407 3.61-2.46 1.332-.02 2.556.786 3.657 2.43l-1.266.848z"/></svg>