<svg xmlns="http://www.w3.org/2000/svg" width="50.183" height="20.122" viewBox="-4.156 -2.831 50.183 20.122"><path fill="#999" d="M8.583 17.29h-4.11c-2.988-.017-8.63-1.43-8.63-6.66v-5.6c0-3.84 1.262-7.777 10.612-7.86h.333c3.096 0 5.63.392 7.533 1.166 2.826 1.15 4.318 3.2 4.318 5.924l.004.315c.027 1.708.11 6.905-3.045 10.11-1.7 1.73-4.06 2.606-7.014 2.606zM6.788-1.33h-.32c-8.42.075-9.125 3.32-9.125 6.36v5.6c0 5.062 6.84 5.16 7.133 5.16h4.106c2.536 0 4.536-.724 5.944-2.155 2.714-2.76 2.64-7.483 2.615-9.036l-.003-.34c0-3.71-3.48-5.59-10.35-5.59zM37.4 17.29h-4.114c-2.953 0-5.313-.874-7.012-2.603-3.156-3.206-3.074-8.403-3.047-10.11l.004-.316c0-3.234 2.058-7.09 11.853-7.09h.332c9.35.084 10.61 4.02 10.61 7.86v5.6c0 5.23-5.64 6.645-8.624 6.662zM35.082-1.33c-6.87 0-10.352 1.88-10.352 5.59l-.003.34c-.023 1.553-.1 6.277 2.615 9.036 1.408 1.43 3.408 2.156 5.943 2.156h4.11c.32-.002 7.13-.127 7.13-5.16V5.028c0-3.04-.705-6.285-9.125-6.36h-.317z"/><path fill="#999" d="M20.9 3.593c-2.245 0-3.774-.917-3.868-.976l.785-1.277-.393.64.39-.642c.114.07 2.862 1.686 6.296-.03l.67 1.342c-1.414.706-2.74.943-3.88.943zM23.39 6.95c-.026-.035-.77-1.01-2.456-1.01-1.695 0-2.447 1-2.455 1.01l-1.226-.866c.047-.067 1.188-1.645 3.68-1.645 2.49 0 3.635 1.576 3.682 1.644l-1.225.865z"/></svg>