<svg xmlns="http://www.w3.org/2000/svg" width="46.027" height="19.749" viewBox="0 0 46.027 19.749"><path fill="#999" d="M26.29 10.006c-.315-1.782-1.882-2.415-3.234-2.355-1.5.034-3.118.843-3.314 2.323l-1.486-.195c.306-2.318 2.63-3.58 4.768-3.626.047-.002.094-.002.14-.002 2.416 0 4.217 1.4 4.605 3.595l-1.48.26z"/><path fill="#999" d="M36.154 19.75c-5.445 0-9.875-4.43-9.875-9.875S30.71 0 36.153 0c5.444 0 9.873 4.43 9.873 9.875 0 5.444-4.43 9.874-9.873 9.874zm0-18.25c-4.618 0-8.375 3.757-8.375 8.375 0 4.617 3.756 8.374 8.374 8.374 4.617 0 8.373-3.758 8.373-8.375 0-4.618-3.756-8.375-8.373-8.375zM9.874 19.75C4.43 19.75 0 15.32 0 9.874S4.43 0 9.874 0s9.874 4.43 9.874 9.875c0 5.444-4.43 9.874-9.874 9.874zm0-18.25C5.257 1.5 1.5 5.257 1.5 9.875c0 4.617 3.757 8.374 8.374 8.374s8.374-3.758 8.374-8.375c0-4.618-3.757-8.375-8.374-8.375z"/></svg>