<svg xmlns="http://www.w3.org/2000/svg" width="52.941" height="17.313" viewBox="0 0 52.941 17.313"><path fill="#999" d="M12.003 17.313c-3.292 0-9.517-1.66-9.517-7.937 0-5.283 3.64-8.194 10.248-8.196.005-.002.355-.028.896-.028 2.215 0 9.443.502 9.443 6.97 0 4.192-1.92 9.19-11.07 9.19zM13.63 2.65c-.5 0-.81.025-.826.026-4.057.004-8.818 1.166-8.818 6.7 0 6.363 7.69 6.437 8.017 6.437 6.44 0 9.57-2.516 9.57-7.69 0-4.938-5.555-5.472-7.943-5.472z"/><path fill="#999" d="M22.323 7.79v-1.5c.08-.05.22-.365.22-1.77 0-1.553-5.265-3.02-10.834-3.02-3.613 0-8.528.906-10.21 1.24v1.42c1.71.49 2.725 2.118 2.772 2.195l-1.278.786c-.01-.014-.947-1.498-2.306-1.612L0 5.472v-3.95l.593-.128C.858 1.337 7.15 0 11.71 0c3.43 0 12.333.813 12.333 4.52 0 1.303 0 3.27-1.72 3.27zM40.938 17.313c-9.15 0-11.07-4.998-11.07-9.19 0-6.47 7.23-6.97 9.444-6.97.59 0 .952.03.952.03h.01c6.543 0 10.182 2.91 10.182 8.193 0 6.277-6.226 7.937-9.518 7.937zM39.312 2.65c-1.084 0-3.167.12-4.93.913-2.028.912-3.015 2.403-3.015 4.56 0 5.174 3.13 7.69 9.57 7.69.327 0 8.018-.074 8.018-6.438 0-5.534-4.76-6.696-8.755-6.696-.077-.004-.39-.03-.888-.03z"/><path fill="#999" d="M30.618 7.79c-1.72 0-1.72-1.967-1.72-3.27C28.898.813 37.802 0 41.232 0c4.558 0 10.85 1.337 11.116 1.394l.593.127v3.952l-.687.057c-1.358.112-2.297 1.597-2.306 1.61l-1.278-.784c.047-.078 1.062-1.705 2.77-2.195V2.74c-1.682-.333-6.6-1.24-10.208-1.24-5.57 0-10.834 1.468-10.834 3.02 0 1.405.14 1.722.2 1.792l.02 1.48z"/><path fill="#999" d="M30.023 8.285c-.036-.07-.977-1.843-3.552-1.843-2.613 0-3.543 1.824-3.552 1.843l-1.346-.664c.054-.108 1.362-2.678 4.898-2.678 3.535 0 4.843 2.57 4.897 2.68l-1.344.663zM26.418 4.025c-2.945 0-5.048-.79-5.136-.822l.534-1.402c.02.008 1.948.726 4.602.726 2.773 0 4.688-.717 4.708-.724l.537 1.4c-.088.033-2.177.823-5.245.823z"/></svg>