<?xml version="1.0" encoding="utf-8"?>
<!-- Generator: Adobe Illustrator 16.0.0, SVG Export Plug-In . SVG Version: 6.00 Build 0)  -->
<!DOCTYPE svg PUBLIC "-//W3C//DTD SVG 1.1//EN" "http://www.w3.org/Graphics/SVG/1.1/DTD/svg11.dtd">
<svg version="1.1" id="Слой_1" xmlns="http://www.w3.org/2000/svg" xmlns:xlink="http://www.w3.org/1999/xlink" x="0px" y="0px"
	 width="52.941px" height="17.313px" viewBox="0 0 52.941 17.313" enable-background="new 0 0 52.941 17.313" xml:space="preserve">
<g id="Слой_1_1_" display="none">
	<path display="inline" fill="#999999" d="M12.003,17.313c-3.292,0-9.517-1.659-9.517-7.937c0-5.283,3.64-8.194,10.248-8.196
		c0.005-0.002,0.354-0.028,0.896-0.028c2.217,0,9.443,0.502,9.443,6.973C23.073,12.314,21.152,17.313,12.003,17.313z M13.63,2.651
		c-0.499,0-0.811,0.024-0.824,0.025c-4.059,0.004-8.818,1.166-8.818,6.7c0,6.361,7.688,6.437,8.017,6.437
		c6.44,0,9.57-2.516,9.57-7.688C21.573,3.185,16.018,2.651,13.63,2.651z"/>
	<path display="inline" fill="#999999" d="M22.323,7.791v-1.5c0.08-0.05,0.22-0.366,0.22-1.771c0-1.553-5.265-3.021-10.834-3.021
		C8.097,1.5,3.182,2.406,1.5,2.739V4.16C3.21,4.65,4.225,6.278,4.272,6.355L2.994,7.141C2.985,7.126,2.047,5.642,0.688,5.528
		L0,5.472V1.521l0.593-0.127C0.858,1.337,7.151,0,11.709,0c3.433,0,12.334,0.813,12.334,4.521
		C24.043,5.823,24.043,7.791,22.323,7.791z"/>
	<path display="inline" fill="#999999" d="M40.938,17.313c-9.149,0-11.07-4.998-11.07-9.188c0-6.471,7.229-6.973,9.444-6.973
		c0.589,0,0.952,0.031,0.952,0.031c0.003,0,0.006,0,0.009,0c6.544,0,10.183,2.91,10.183,8.193
		C50.456,15.653,44.23,17.313,40.938,17.313z M39.312,2.651c-1.084,0-3.167,0.118-4.933,0.912c-2.025,0.912-3.014,2.403-3.014,4.561
		c0,5.175,3.131,7.688,9.57,7.688c0.327,0,8.018-0.073,8.018-6.437c0-5.534-4.761-6.696-8.755-6.696
		C40.123,2.676,39.811,2.651,39.312,2.651z"/>
	<path display="inline" fill="#999999" d="M30.618,7.791c-1.72,0-1.72-1.97-1.72-3.271c0-3.707,8.902-4.52,12.334-4.52
		c4.558,0,10.851,1.337,11.116,1.394l0.593,0.127v3.951l-0.688,0.057c-1.356,0.113-2.297,1.6-2.306,1.612l-1.278-0.785
		c0.048-0.078,1.063-1.705,2.772-2.193V2.74C49.758,2.406,44.841,1.5,41.232,1.5c-5.569,0-10.834,1.468-10.834,3.021
		c0,1.404,0.14,1.723,0.199,1.791L30.618,7.791z"/>
	<path display="inline" fill="#999999" d="M30.023,8.285c-0.036-0.07-0.979-1.845-3.552-1.845c-2.614,0-3.546,1.824-3.555,1.845
		l-1.346-0.664c0.054-0.109,1.362-2.681,4.898-2.681c3.533,0,4.843,2.569,4.896,2.681L30.023,8.285z"/>
	<path display="inline" fill="#999999" d="M26.418,4.025c-2.943,0-5.048-0.789-5.136-0.82l0.534-1.402
		c0.019,0.007,1.948,0.725,4.602,0.725c2.773,0,4.688-0.717,4.708-0.724l0.537,1.4C31.575,3.235,29.486,4.025,26.418,4.025z"/>
</g>
<path fill="none" stroke="#979797" stroke-width="2" stroke-miterlimit="10" d="M47.237,2.012c-1.774-0.016-8.045,0.143-9.169,0.497
	c-1.124,0.355-6.429,3.147-8.697,3.533c-0.459,0.079-1.864,0-1.864,0h-0.505H25.94h-0.505c0,0-1.405,0.079-1.864,0
	c-2.268-0.386-7.572-3.178-8.697-3.533C13.75,2.155,7.479,1.996,5.705,2.012c0,0-4.819-0.233-4.455,2.024
	c0.134,0.824,0.619,2.326,0.745,2.628c0.295,0.708,2.349,6.202,7.791,7.425c5.442,1.222,11.034,3.07,12.72-3.378
	c0.193-0.905,1.694-2.308,3.966-2.508c2.271,0.2,3.772,1.603,3.965,2.508c1.686,6.448,7.277,4.6,12.721,3.378
	c5.441-1.223,7.691-7.113,7.79-7.425s0.612-1.804,0.744-2.628C52.055,1.78,47.237,2.012,47.237,2.012z"/>
</svg>
