<svg xmlns="http://www.w3.org/2000/svg" width="50.738" height="19.305" viewBox="0 0 50.738 19.305"><path fill="#999" d="M10.106 19.305c-1.43 0-2.823-.29-4.144-.862C2.976 17.15.947 14.693.248 11.527c-.63-2.86-.026-5.936 1.506-7.655C4.604.672 9.37 0 12.867 0c4.314 0 9.065 1.105 10.166 2.366.31.356.34.697.31.92-.54 10.495-7.07 16.02-13.237 16.02zM12.866 1.5C8.36 1.5 4.81 2.696 2.874 4.87c-1.208 1.354-1.686 3.96-1.16 6.333.342 1.555 1.428 4.384 4.844 5.862 1.132.49 2.326.74 3.548.74 5.434 0 11.19-4.985 11.738-14.517C21.18 2.694 17.43 1.5 12.867 1.5zM40.634 19.305c-6.168 0-12.698-5.523-13.244-16.08-.024-.16.005-.502.315-.858C28.805 1.105 33.555 0 37.87 0c3.498 0 8.265.672 11.115 3.87 1.532 1.72 2.138 4.798 1.506 7.657-.698 3.167-2.728 5.623-5.713 6.915-1.32.573-2.716.863-4.143.863zM28.894 3.29c.573 9.552 6.317 14.515 11.74 14.515 1.22 0 2.414-.25 3.547-.74 3.417-1.478 4.503-4.307 4.846-5.86.524-2.374.047-4.98-1.16-6.335C45.93 2.696 42.38 1.5 37.87 1.5c-4.567 0-8.32 1.196-8.977 1.79z"/><path fill="#999" d="M27.82 6.786c-.232-1.32-1.398-1.748-2.415-1.744-1.125.025-2.34.62-2.483 1.71l-1.486-.195c.254-1.927 2.173-2.975 3.937-3.014 2.03-.062 3.596 1.124 3.926 2.98l-1.48.263zM32.628 1.972c-.065-.01-6.507-.967-14.628-.012L17.824.47c8.33-.98 14.762-.02 15.03.02l-.226 1.482z"/></svg>