<svg xmlns="http://www.w3.org/2000/svg" width="59.051" height="22.136" viewBox="-4.156 -2.831 59.051 22.136"><path fill="#999" d="M12.39 19.305c-10.207 0-16.547-8.182-16.547-21.353v-.783l.782.033c.34.015 8.39.385 15.4 2.664 5.737 1.865 10.35 6.406 10.543 6.6l.204.2.017.287c.013.24.3 5.893-3.1 9.497-1.787 1.894-4.244 2.855-7.3 2.855zM-2.65-1.25c.237 11.95 5.82 19.055 15.04 19.055 2.623 0 4.71-.8 6.203-2.38 2.557-2.702 2.712-6.963 2.705-8.1-.958-.894-5.01-4.496-9.736-6.03C5.99-.52-.442-1.1-2.648-1.252z"/><path fill="#999" d="M25.638 7.222c-3.934 0-6.854-2.058-6.897-2.09l.877-1.217c.232.166 5.743 4.016 11.567.037l.846 1.238c-2.228 1.522-4.436 2.032-6.392 2.032zM28.55 11.312c-1.053-1.303-2.173-1.958-3.218-1.927-1.74.038-3.046 1.78-3.06 1.798l-1.21-.885c.07-.096 1.74-2.35 4.225-2.413 1.585-.03 3.066.796 4.43 2.484l-1.167.942zM5.595 17.9C1.45 16.05-.725 10.947.647 6.285c1.416-4.81 5.91-7.12 12.022-6.18l-.23 1.48C7.14.777 3.27 2.69 2.087 6.71c-1.145 3.89.704 8.295 4.12 9.82l-.61 1.37z"/><path fill="#999" d="M38.35 19.305c-3.06 0-5.515-.96-7.302-2.855-3.4-3.603-3.113-9.257-3.1-9.496l.017-.286.203-.202c.194-.192 4.806-4.733 10.544-6.6 7.012-2.278 15.06-2.648 15.4-2.663l.78-.034v.782c.002 13.17-6.338 21.353-16.543 21.353zm-8.91-11.98c-.007 1.137.148 5.398 2.705 8.1 1.49 1.58 3.58 2.38 6.204 2.38 9.217 0 14.8-7.105 15.036-19.055-2.208.153-8.642.733-14.21 2.544C34.45 2.83 30.397 6.43 29.44 7.326z"/><path fill="#999" d="M45.143 17.9l-.61-1.37c3.416-1.525 5.264-5.93 4.12-9.82-1.185-4.023-5.057-5.94-10.355-5.123l-.23-1.482c6.117-.94 10.608 1.37 12.023 6.18 1.373 4.663-.8 9.765-4.947 11.614z"/></svg>